# xmcd CD database file
#
# Track frame offsets:
#	150
#	29039
#	47258
#	60680
#	84382
#	104502
#	125592
#	147890
#	166284
#	183410
#	203113
#	228697
#
# Disc length: 3329 seconds
#
# Revision: 0
# Processed by: cddbd v1.5.2PL0 Copyright (c) Steve Scherf et al.
# Submitted via: CDex 1.70beta2
#
DISCID=a70cff0c
DTITLE=陳蓉暉 Cindy Chen - 琴聲無邊
DYEAR=1900
DGENRE=New Age
TTITLE0=白毛女隨想 Capriccio Of White Hair Girl
TTITLE1=其實妳不懂我的心 Actually You Don`t Know My Heart
TTITLE2=我的花兒 My Flower
TTITLE3=掌聲響起 When I Hear The Applause
TTITLE4=情聲無邊 Boundless Love
TTITLE5=牧歌 Pastoral
TTITLE6=神話 Myth
TTITLE7=漁光曲 Fishing Song
TTITLE8=思想起 Nostalgia
TTITLE9=紅玫瑰 Red Rose
TTITLE10=送別 Farewell
TTITLE11=天路 Road To Paradise
EXTD=
EXTT0=
EXTT1=
EXTT2=
EXTT3=
EXTT4=
EXTT5=
EXTT6=
EXTT7=
EXTT8=
EXTT9=
EXTT10=
EXTT11=
PLAYORDER=
